<svg xmlns="http://www.w3.org/2000/svg" xmlns:xlink="http://www.w3.org/1999/xlink" viewBox="0 0 450 225" preserveAspectRatio="xMidYMid" style="display: block; shape-rendering: auto; background: rgb(52, 11, 11);" width="450" height="225"><style type="text/css">
  .ld-text text {
    text-anchor: middle;
    dominant-baseline: middle;
    font-size: 80px;
    opacity: 0;
    user-select: none;
    pointer-events: none;
  }
</style>
<g class="ld-text" style="transform-origin:225px 112.5px;transform:scale(1)">
<style type="text/css">
  @keyframes ld-speed-dash {
    0% { transform: translate(0,0); }
    50% { transform: translate(112.5px,0); }
    100% { transform: translate(0,0); }
  }
  .ld.ld-speed-dash {
    animation: ld-speed-dash 0.33783783783783783s linear infinite;
  }
</style>
  <g transform="translate(225,112.5)">
    <g><g style="transform:rotate(237.25869388156104deg)">
<path class="ld ld-speed-dash" d="M98.38183772772281 0 L791.7629195632829 23.561300492713826L791.7629195632829 -23.561300492713826z" fill="#ffffff" style="animation-delay:0.05441295811858935s"/>
/&gt;
</g><g style="transform:rotate(23.31988529103083deg)">
<path class="ld ld-speed-dash" d="M127.04063868344124 0 L990.2797096107965 25.47495687378566L990.2797096107965 -25.47495687378566z" fill="#d53e4f" style="animation-delay:-0.08402591861094665s"/>
/&gt;
</g><g style="transform:rotate(206.74916642093075deg)">
<path class="ld ld-speed-dash" d="M95.97978548943072 0 L947.8232567380148 13.104949525604628L947.8232567380148 -13.104949525604628z" fill="#ffffff" style="animation-delay:0.40129753861938605s"/>
/&gt;
</g><g style="transform:rotate(5.4425831102212deg)">
<path class="ld ld-speed-dash" d="M106.83501107112558 0 L1004.8062971740801 23.74457277616493L1004.8062971740801 -23.74457277616493z" fill="#ffffff" style="animation-delay:0.5554760018075409s"/>
/&gt;
</g><g style="transform:rotate(54.435651867201265deg)">
<path class="ld ld-speed-dash" d="M91.28690705434325 0 L803.0145173065222 11.27344817411512L803.0145173065222 -11.27344817411512z" fill="#ffffff" style="animation-delay:-0.41973446518838065s"/>
/&gt;
</g><g style="transform:rotate(203.1667004001818deg)">
<path class="ld ld-speed-dash" d="M87.23423297304919 0 L950.94809515639 15.03927381586502L950.94809515639 -15.03927381586502z" fill="#ffffff" style="animation-delay:-0.42142599213796744s"/>
/&gt;
</g><g style="transform:rotate(346.4301430621022deg)">
<path class="ld ld-speed-dash" d="M55.93625136296388 0 L943.374309354599 21.057965888320204L943.374309354599 -21.057965888320204z" fill="#d53e4f" style="animation-delay:0.22765170244536168s"/>
/&gt;
</g><g style="transform:rotate(339.72039974338105deg)">
<path class="ld ld-speed-dash" d="M51.1001819832019 0 L923.2057615624663 28.22407856644331L923.2057615624663 -28.22407856644331z" fill="#d53e4f" style="animation-delay:-0.2556780150825819s"/>
/&gt;
</g><g style="transform:rotate(255.65207301279142deg)">
<path class="ld ld-speed-dash" d="M63.92527021576013 0 L625.4395416633996 26.446568766961956L625.4395416633996 -26.446568766961956z" fill="#ffffff" style="animation-delay:-0.04599523112145196s"/>
/&gt;
</g><g style="transform:rotate(271.5699455977863deg)">
<path class="ld ld-speed-dash" d="M34.56594092413607 0 L496.89472194002326 16.956060711421866L496.89472194002326 -16.956060711421866z" fill="#d53e4f" style="animation-delay:-0.47424983592415765s"/>
/&gt;
</g><g style="transform:rotate(35.18794249135368deg)">
<path class="ld ld-speed-dash" d="M76.3858148005206 0 L894.1555987326881 16.887862222351252L894.1555987326881 -16.887862222351252z" fill="#ffffff" style="animation-delay:-0.36091333845654816s"/>
/&gt;
</g><g style="transform:rotate(83.14828349949485deg)">
<path class="ld ld-speed-dash" d="M61.17551343500214 0 L564.8606005851558 26.935932204401286L564.8606005851558 -26.935932204401286z" fill="#d53e4f" style="animation-delay:-0.4345424837335051s"/>
/&gt;
</g><g style="transform:rotate(268.51442928281534deg)">
<path class="ld ld-speed-dash" d="M26.43019782186788 0 L488.09653570028064 13.400854183966288L488.09653570028064 -13.400854183966288z" fill="#ffffff" style="animation-delay:-0.27797886842038333s"/>
/&gt;
</g><g style="transform:rotate(24.302310970396707deg)">
<path class="ld ld-speed-dash" d="M119.14519244772868 0 L979.2691974831696 20.259567913613644L979.2691974831696 -20.259567913613644z" fill="#ffffff" style="animation-delay:0.487857820959132s"/>
/&gt;
</g><g style="transform:rotate(99.98668324608892deg)">
<path class="ld ld-speed-dash" d="M70.19154193265543 0 L598.2302191826016 22.03965890939121L598.2302191826016 -22.03965890939121z" fill="#d53e4f" style="animation-delay:-0.347648422031327s"/>
/&gt;
</g><g style="transform:rotate(96.55357506235588deg)">
<path class="ld ld-speed-dash" d="M55.712121172968956 0 L557.0716177744714 15.472855513682372L557.0716177744714 -15.472855513682372z" fill="#ffffff" style="animation-delay:-0.6662599019639178s"/>
/&gt;
</g><g style="transform:rotate(56.217087224953666deg)">
<path class="ld ld-speed-dash" d="M53.563464706935896 0 L753.7849601496159 12.051166001059894L753.7849601496159 -12.051166001059894z" fill="#ffffff" style="animation-delay:-0.11846443967330013s"/>
/&gt;
</g><g style="transform:rotate(355.830280478211deg)">
<path class="ld ld-speed-dash" d="M104.77202179106806 0 L1003.580891544128 15.292171493515335L1003.580891544128 -15.292171493515335z" fill="#d53e4f" style="animation-delay:-0.016211385703231575s"/>
/&gt;
</g><g style="transform:rotate(254.98219960493395deg)">
<path class="ld ld-speed-dash" d="M39.66601559004 0 L606.2696205342367 29.816158334696865L606.2696205342367 -29.816158334696865z" fill="#d53e4f" style="animation-delay:-0.20580740548853416s"/>
/&gt;
</g><g style="transform:rotate(343.3434187548469deg)">
<path class="ld ld-speed-dash" d="M104.6696253467968 0 L985.7876170992633 10.024856204919935L985.7876170992633 -10.024856204919935z" fill="#d53e4f" style="animation-delay:0.032167321101884784s"/>
/&gt;
</g><g style="transform:rotate(137.4806427839514deg)">
<path class="ld ld-speed-dash" d="M112.6130909557564 0 L894.2851627847306 26.8030944832785L894.2851627847306 -26.8030944832785z" fill="#ffffff" style="animation-delay:-0.43821599079609685s"/>
/&gt;
</g><g style="transform:rotate(253.677049664846deg)">
<path class="ld ld-speed-dash" d="M76.21565120289127 0 L652.6886664343077 18.941656564639622L652.6886664343077 -18.941656564639622z" fill="#d53e4f" style="animation-delay:-0.4166889028475235s"/>
/&gt;
</g><g style="transform:rotate(241.5850210265348deg)">
<path class="ld ld-speed-dash" d="M52.75340572290168 0 L716.8877783782665 23.156726030139268L716.8877783782665 -23.156726030139268z" fill="#d53e4f" style="animation-delay:0.12127443057449817s"/>
/&gt;
</g><g style="transform:rotate(120.20380387555305deg)">
<path class="ld ld-speed-dash" d="M96.14654435556392 0 L772.5313405415436 23.84558075801833L772.5313405415436 -23.84558075801833z" fill="#ffffff" style="animation-delay:-0.24377983608885667s"/>
/&gt;
</g><g style="transform:rotate(108.85012736912803deg)">
<path class="ld ld-speed-dash" d="M38.60683954237011 0 L633.9990421277764 25.05578664543531L633.9990421277764 -25.05578664543531z" fill="#d53e4f" style="animation-delay:-0.2994207973183114s"/>
/&gt;
</g><g style="transform:rotate(357.07643314194786deg)">
<path class="ld ld-speed-dash" d="M115.38768409275643 0 L1014.801992375387 21.49145113504752L1014.801992375387 -21.49145113504752z" fill="#ffffff" style="animation-delay:-0.14588350489544627s"/>
/&gt;
</g><g style="transform:rotate(246.02346920164842deg)">
<path class="ld ld-speed-dash" d="M83.93666299670731 0 L716.7997462305614 21.323310781422734L716.7997462305614 -21.323310781422734z" fill="#d53e4f" style="animation-delay:-0.2967174232190839s"/>
/&gt;
</g><g style="transform:rotate(101.18174796968533deg)">
<path class="ld ld-speed-dash" d="M39.512798426957644 0 L576.7776310321677 20.065093400664736L576.7776310321677 -20.065093400664736z" fill="#ffffff" style="animation-delay:0.5877676704668466s"/>
/&gt;
</g><g style="transform:rotate(117.6477083679297deg)">
<path class="ld ld-speed-dash" d="M41.39433226661999 0 L700.2095368109018 17.64483345431308L700.2095368109018 -17.64483345431308z" fill="#d53e4f" style="animation-delay:-0.5749056528268478s"/>
/&gt;
</g><g style="transform:rotate(107.87773165334646deg)">
<path class="ld ld-speed-dash" d="M65.54247797296206 0 L653.6865162610105 24.08580142507148L653.6865162610105 -24.08580142507148z" fill="#ffffff" style="animation-delay:0.2597247030948126s"/>
/&gt;
</g><g style="transform:rotate(78.94543241513962deg)">
<path class="ld ld-speed-dash" d="M43.724579438740875 0 L580.0092870734278 26.66951155417994L580.0092870734278 -26.66951155417994z" fill="#d53e4f" style="animation-delay:0.48458134050747803s"/>
/&gt;
</g><g style="transform:rotate(183.3478962272795deg)">
<path class="ld ld-speed-dash" d="M120.31851765406897 0 L1019.5505239514692 18.79176295248003L1019.5505239514692 -18.79176295248003z" fill="#d53e4f" style="animation-delay:-0.16673099262976276s"/>
/&gt;
</g><g style="transform:rotate(85.1245398140774deg)">
<path class="ld ld-speed-dash" d="M67.57802153488429 0 L555.8236025682304 26.46673054691417L555.8236025682304 -26.46673054691417z" fill="#d53e4f" style="animation-delay:-0.0446299409600541s"/>
/&gt;
</g><g style="transform:rotate(130.86972747884073deg)">
<path class="ld ld-speed-dash" d="M46.96549446669999 0 L791.419107934355 20.754303695227684L791.419107934355 -20.754303695227684z" fill="#ffffff" style="animation-delay:-0.3242549071754166s"/>
/&gt;
</g><g style="transform:rotate(91.1378370651536deg)">
<path class="ld ld-speed-dash" d="M58.12610936951792 0 L517.0620733937398 15.439322494891202L517.0620733937398 -15.439322494891202z" fill="#d53e4f" style="animation-delay:-0.6328590702856318s"/>
/&gt;
</g><g style="transform:rotate(201.96605767001853deg)">
<path class="ld ld-speed-dash" d="M116.14758090020021 0 L983.4801057750393 27.893430166467695L983.4801057750393 -27.893430166467695z" fill="#ffffff" style="animation-delay:-0.14436021555411582s"/>
/&gt;
</g><g style="transform:rotate(286.81755320755843deg)">
<path class="ld ld-speed-dash" d="M59.41138653433881 0 L639.6076675795803 29.55752626107277L639.6076675795803 -29.55752626107277z" fill="#d53e4f" style="animation-delay:0.004314954597689641s"/>
/&gt;
</g><g style="transform:rotate(281.1570307019591deg)">
<path class="ld ld-speed-dash" d="M39.465358719885245 0 L576.5397393980369 26.993802007208L576.5397393980369 -26.993802007208z" fill="#d53e4f" style="animation-delay:0.19130815422007388s"/>
/&gt;
</g><g style="transform:rotate(265.5232424741718deg)">
<path class="ld ld-speed-dash" d="M27.35996675948761 0 L512.4845737000306 26.995813229945078L512.4845737000306 -26.995813229945078z" fill="#ffffff" style="animation-delay:-0.03488305284638144s"/>
/&gt;
</g><g style="transform:rotate(159.69883639153443deg)">
<path class="ld ld-speed-dash" d="M113.76106717301593 0 L985.8079170304584 13.318554661649367L985.8079170304584 -13.318554661649367z" fill="#ffffff" style="animation-delay:0.5346176306397769s"/>
/&gt;
</g><g style="transform:rotate(148.86059751805104deg)">
<path class="ld ld-speed-dash" d="M42.7703740450033 0 L877.9306213179199 19.775097926088716L877.9306213179199 -19.775097926088716z" fill="#ffffff" style="animation-delay:-0.09882344595562968s"/>
/&gt;
</g><g style="transform:rotate(171.47750223604535deg)">
<path class="ld ld-speed-dash" d="M78.86644274602025 0 L973.8974294664729 13.866752291259694L973.8974294664729 -13.866752291259694z" fill="#ffffff" style="animation-delay:-0.5527698985601921s"/>
/&gt;
</g><g style="transform:rotate(279.9527071323271deg)">
<path class="ld ld-speed-dash" d="M75.73201163727593 0 L603.5078706627964 28.91554997605087L603.5078706627964 -28.91554997605087z" fill="#ffffff" style="animation-delay:-0.4026477045602334s"/>
/&gt;
</g><g style="transform:rotate(246.52916006483278deg)">
<path class="ld ld-speed-dash" d="M37.085451117406144 0 L666.3124814089206 19.771857241457752L666.3124814089206 -19.771857241457752z" fill="#d53e4f" style="animation-delay:0.45148169393573645s"/>
/&gt;
</g><g style="transform:rotate(294.0453440637037deg)">
<path class="ld ld-speed-dash" d="M64.64083009095935 0 L697.9976043856263 15.561646585105098L697.9976043856263 -15.561646585105098z" fill="#d53e4f" style="animation-delay:0.2708339699376217s"/>
/&gt;
</g><g style="transform:rotate(336.2563439918231deg)">
<path class="ld ld-speed-dash" d="M72.50425017142294 0 L934.4144803438705 23.413600421257133L934.4144803438705 -23.413600421257133z" fill="#d53e4f" style="animation-delay:0.501026112535651s"/>
/&gt;
</g><g style="transform:rotate(94.0287847687887deg)">
<path class="ld ld-speed-dash" d="M33.22038727538026 0 L514.8363208273195 22.431403432739092L514.8363208273195 -22.431403432739092z" fill="#ffffff" style="animation-delay:-0.08789729086445196s"/>
/&gt;
</g><g style="transform:rotate(189.77522893176376deg)">
<path class="ld ld-speed-dash" d="M64.86585972248146 0 L958.3324871127517 29.153274970564485L958.3324871127517 -29.153274970564485z" fill="#d53e4f" style="animation-delay:-0.25844095890249386s"/>
/&gt;
</g><g style="transform:rotate(353.0892485016328deg)">
<path class="ld ld-speed-dash" d="M58.82317923997416 0 L955.5538306394888 25.294189850451126L955.5538306394888 -25.294189850451126z" fill="#ffffff" style="animation-delay:0.33364266476079346s"/>
/&gt;
</g><g style="transform:rotate(204.31060904220365deg)">
<path class="ld ld-speed-dash" d="M82.47822487480107 0 L942.5754036277071 16.490399264992313L942.5754036277071 -16.490399264992313z" fill="#d53e4f" style="animation-delay:0.4131729743657827s"/>
/&gt;
</g><g style="transform:rotate(231.39629956042089deg)">
<path class="ld ld-speed-dash" d="M70.86861940749003 0 L801.6371508148482 23.427988766072687L801.6371508148482 -23.427988766072687z" fill="#ffffff" style="animation-delay:0.161980247473755s"/>
/&gt;
</g><g style="transform:rotate(231.79000180984903deg)">
<path class="ld ld-speed-dash" d="M47.20648644863818 0 L775.5519700077341 12.894732280260602L775.5519700077341 -12.894732280260602z" fill="#ffffff" style="animation-delay:-0.3284580051999471s"/>
/&gt;
</g><g style="transform:rotate(6.4341712852701205deg)">
<path class="ld ld-speed-dash" d="M109.86584580687295 0 L1007.0314137942397 10.295624557397982L1007.0314137942397 -10.295624557397982z" fill="#d53e4f" style="animation-delay:-0.2648584518045413s"/>
/&gt;
</g><g style="transform:rotate(75.80100748034204deg)">
<path class="ld ld-speed-dash" d="M64.27541007057583 0 L624.6560627376298 20.80765604888929L624.6560627376298 -20.80765604888929z" fill="#ffffff" style="animation-delay:-0.39166543249676394s"/>
/&gt;
</g><g style="transform:rotate(152.7973835214769deg)">
<path class="ld ld-speed-dash" d="M108.6025385312097 0 L958.8305128357508 11.516834526577242L958.8305128357508 -11.516834526577242z" fill="#ffffff" style="animation-delay:0.3294547024005795s"/>
/&gt;
</g><g style="transform:rotate(33.60482716169368deg)">
<path class="ld ld-speed-dash" d="M89.09043215341177 0 L913.8840087192448 15.929524265296259L913.8840087192448 -15.929524265296259z" fill="#d53e4f" style="animation-delay:-0.3249935513680321s"/>
/&gt;
</g><g style="transform:rotate(174.39380181838845deg)">
<path class="ld ld-speed-dash" d="M109.77016231441182 0 L1007.6177393106843 14.82125180778543L1007.6177393106843 -14.82125180778543z" fill="#ffffff" style="animation-delay:-0.4166080625083852s"/>
/&gt;
</g><g style="transform:rotate(26.45215494844032deg)">
<path class="ld ld-speed-dash" d="M81.67650665899313 0 L934.5644985557185 16.942585666388258L934.5644985557185 -16.942585666388258z" fill="#d53e4f" style="animation-delay:-0.5578972064947645s"/>
/&gt;
</g><g style="transform:rotate(187.14559053119612deg)">
<path class="ld ld-speed-dash" d="M92.36851083655291 0 L988.8734838901331 15.58380119946341L988.8734838901331 -15.58380119946341z" fill="#d53e4f" style="animation-delay:-0.014805770840972302s"/>
/&gt;
</g><g style="transform:rotate(262.2846976640039deg)">
<path class="ld ld-speed-dash" d="M31.58376371786572 0 L541.9966455926611 13.483721889544697L541.9966455926611 -13.483721889544697z" fill="#ffffff" style="animation-delay:-0.45333853132027874s"/>
/&gt;
</g><g style="transform:rotate(30.162052293915398deg)">
<path class="ld ld-speed-dash" d="M125.26086857178659 0 L964.3343644977954 20.33083121138024L964.3343644977954 -20.33083121138024z" fill="#d53e4f" style="animation-delay:0.3289380120486913s"/>
/&gt;
</g><g style="transform:rotate(6.609090260528512deg)">
<path class="ld ld-speed-dash" d="M74.72941745271467 0 L971.7389504390076 19.172692870919366L971.7389504390076 -19.172692870919366z" fill="#ffffff" style="animation-delay:0.4534912644712365s"/>
/&gt;
</g><g style="transform:rotate(349.02714651493125deg)">
<path class="ld ld-speed-dash" d="M128.11130128174293 0 L1019.8841662991601 14.04742838681006L1019.8841662991601 -14.04742838681006z" fill="#ffffff" style="animation-delay:-0.09839971828279s"/>
/&gt;
</g><g style="transform:rotate(115.6532964490907deg)">
<path class="ld ld-speed-dash" d="M62.75656038178391 0 L707.5725606424617 19.115223051312867L707.5725606424617 -19.115223051312867z" fill="#d53e4f" style="animation-delay:-0.6700447154520637s"/>
/&gt;
</g><g style="transform:rotate(156.95674939947966deg)">
<path class="ld ld-speed-dash" d="M43.59363216684555 0 L907.6879709839752 19.5700927639889L907.6879709839752 -19.5700927639889z" fill="#d53e4f" style="animation-delay:-0.016510562114379353s"/>
/&gt;
</g><g style="transform:rotate(149.04369756366447deg)">
<path class="ld ld-speed-dash" d="M111.30911768016709 0 L947.2110517949827 10.028593129667003L947.2110517949827 -10.028593129667003z" fill="#d53e4f" style="animation-delay:-0.6130018706167103s"/>
/&gt;
</g><g style="transform:rotate(65.90836772161924deg)">
<path class="ld ld-speed-dash" d="M36.01474424887836 0 L669.7034580611545 25.693045935636537L669.7034580611545 -25.693045935636537z" fill="#d53e4f" style="animation-delay:0.3530238787287221s"/>
/&gt;
</g><g style="transform:rotate(319.43310392774225deg)">
<path class="ld ld-speed-dash" d="M113.95916344030846 0 L905.8003944639037 18.084104730806686L905.8003944639037 -18.084104730806686z" fill="#ffffff" style="animation-delay:-0.3316815257521465s"/>
/&gt;
</g><g style="transform:rotate(71.02485561031583deg)">
<path class="ld ld-speed-dash" d="M38.88685885217182 0 L635.2079346899676 22.040735567185948L635.2079346899676 -22.040735567185948z" fill="#ffffff" style="animation-delay:0.3552720724429902s"/>
/&gt;
</g><g style="transform:rotate(201.39911265279193deg)">
<path class="ld ld-speed-dash" d="M125.33724316153184 0 L994.3149031518745 20.57377133179728L994.3149031518745 -20.57377133179728z" fill="#ffffff" style="animation-delay:0.36314171415109037s"/>
/&gt;
</g><g style="transform:rotate(332.7580827498227deg)">
<path class="ld ld-speed-dash" d="M61.18895249947077 0 L911.2757288331535 25.087040602498703L911.2757288331535 -25.087040602498703z" fill="#ffffff" style="animation-delay:0.15380500114716233s"/>
/&gt;
</g><g style="transform:rotate(272.7705986236156deg)">
<path class="ld ld-speed-dash" d="M36.00572855075595 0 L507.7574798887464 15.81956448918875L507.7574798887464 -15.81956448918875z" fill="#d53e4f" style="animation-delay:0.012630587823045006s"/>
/&gt;
</g><g style="transform:rotate(116.34603798829659deg)">
<path class="ld ld-speed-dash" d="M62.72387754766111 0 L712.4300019408714 27.39202525884021L712.4300019408714 -27.39202525884021z" fill="#ffffff" style="animation-delay:-0.267634084289433s"/>
/&gt;
</g><g style="transform:rotate(35.07253044600639deg)">
<path class="ld ld-speed-dash" d="M59.46837902288609 0 L877.7597642687756 26.80170874110803L877.7597642687756 -26.80170874110803z" fill="#d53e4f" style="animation-delay:-0.28711461576021025s"/>
/&gt;
</g><g style="transform:rotate(226.34819480363618deg)">
<path class="ld ld-speed-dash" d="M51.14043467175634 0 L811.7637513802813 21.78728778701351L811.7637513802813 -21.78728778701351z" fill="#ffffff" style="animation-delay:-0.365907106555236s"/>
/&gt;
</g></g>
    <g transform="scale(1.0000) translate(0,0)"><g class="path" style="opacity: 1; transform-origin: -138.42px -3.4px; transform: matrix3d(0, 0, 0, 0, 0, 0, 0, 0, 0, 0, 1, 0, 0, 0, 0, 1); animation: 1.35135s linear -0.802703s infinite normal forwards running animate-n6j5ik1eq6; transform-box: view-box;"><path d="M26.37 40.32Q26.72 40.91 26.68 41.73Q26.64 42.55 26.52 43.41Q26.41 44.27 26.56 45.32Q26.72 46.38 26.84 47.36Q26.95 48.33 26.95 49.19Q26.95 50.05 26.45 50.64Q25.94 51.22 24.92 51.61Q23.91 52 22.66 52.16L22.66 52.16Q19.77 52.39 17.66 51.30L17.66 51.30Q15.70 50.28 13.95 50.68Q12.19 51.07 11.21 51.42Q10.23 51.77 8.95 52.08Q7.66 52.39 6.41 52.36Q5.16 52.32 4.30 50.95Q3.44 49.58 3.36 47.78Q3.28 45.99 3.91 44.11Q4.53 42.24 4.38 39.86Q4.22 37.47 4.06 35.79Q3.91 34.11 4.06 32.86L4.06 32.86Q4.45 29.89 3.36 28.72L3.36 28.72Q2.50 27.71 2.50 26.34Q2.50 24.97 2.58 24.11Q2.66 23.25 3.13 22.63Q3.59 22 3.71 21.57Q3.83 21.14 3.67 20.05L3.67 20.05Q3.05 15.60 3.24 13.18Q3.44 10.75 3.16 9Q2.89 7.24 3.05 6.11Q3.20 4.97 2.89 4.19Q2.58 3.41 2.70 3.06Q2.81 2.71 2.66 2.04Q2.50 1.38 2.34 0.60L2.34 0.60Q1.88-1.75 2.07-2.61Q2.27-3.47 2.85-4.60Q3.44-5.73 4.30-5.97Q5.16-6.20 5.31-6.36Q5.47-6.51 6.09-6.75L6.09-6.75Q7.73-7.22 8.52-6.82Q9.30-6.43 9.92-6.39Q10.55-6.36 11.21-6.39Q11.88-6.43 12.50-6.59L12.50-6.59L13.44-6.75Q15.08-7.22 15.94-6.59L15.94-6.59Q16.48-6.04 16.72-5.73Q16.95-5.42 16.80-4.79L16.80-4.79Q16.64-4.17 16.95-3.78Q17.27-3.39 17.19-2.64Q17.11-1.90 17.15-1.55Q17.19-1.20 17.27-0.81L17.27-0.81Q17.42-0.03 17.11 1.07Q16.80 2.16 16.72 2.51Q16.64 2.86 16.64 3.18L16.64 3.18Q16.64 4.19 16.37 5.09Q16.09 5.99 16.05 6.57Q16.02 7.16 16.02 7.94L16.02 7.94L16.02 9.66Q16.02 10.60 15.90 12Q15.78 13.41 15.66 15.32Q15.55 17.24 15.47 19.19L15.47 19.19Q15.16 24.35 14.69 25.75L14.69 25.75Q13.44 26.46 14.30 29.03L14.30 29.03L14.84 30.68Q15.63 33.02 15.63 35.28Q15.63 37.55 15.23 39.66L15.23 39.66Q17.50 40.91 18.44 40.99L18.44 40.99Q20.70 41.30 22.54 40.36Q24.38 39.43 25.20 39.58Q26.02 39.74 26.37 40.32" style="fill: rgb(213, 62, 79);" transform="translate(-152.898,-26.081)"/></g><g class="path" style="opacity: 1; transform-origin: -109.31px -1.56px; transform: matrix3d(0, 0, 0, 0, 0, 0, 0, 0, 0, 0, 1, 0, 0, 0, 0, 1); animation: 1.35135s linear -0.713514s infinite normal forwards running animate-n6j5ik1eq6; transform-box: view-box;"><path d="M34.38-1.75L34.38-1.75Q35.23-2.53 35.86-3.43Q36.48-4.32 37.50-5.11L37.50-5.11Q40.23-7.37 42.97-6.43L42.97-6.43Q46.33-5.18 49.14-4.87Q51.95-4.56 53.24-3.47Q54.53-2.37 55.47-1.12L55.47-1.12Q57.73 1.85 58.20 5.36L58.20 5.36Q58.28 6.69 58.67 7.24L58.67 7.24Q59.69 8.96 59.34 11.85Q58.98 14.74 59.10 15.87Q59.22 17 59.49 17.55Q59.77 18.10 60 18.64L60 18.64Q60.63 20.13 60.63 21.61L60.63 21.61Q60.63 23.49 59.38 25.36L59.38 25.36Q58.83 26.07 58.98 28.10Q59.14 30.13 59.22 32.16L59.22 32.16Q59.30 37.24 58.67 38.45Q58.05 39.66 57.77 39.89Q57.50 40.13 57.27 40.28L57.27 40.28Q56.09 40.83 55.20 43.53Q54.30 46.22 52.81 47.90Q51.33 49.58 49.73 50.64Q48.13 51.69 47.23 52.28Q46.33 52.86 45.94 53.41Q45.55 53.96 45.16 54.50L45.16 54.50Q44.14 55.75 42.58 55.75L42.58 55.75Q39.92 55.75 38.67 54.50L38.67 54.50Q38.13 53.80 37.50 52.47L37.50 52.47Q36.33 50.36 34.38 49.03L34.38 49.03Q32.19 47.55 31.72 44.58L31.72 44.58Q31.48 43.57 31.60 42.55Q31.72 41.53 31.48 39.97L31.48 39.97Q31.33 38.41 30.86 37.16Q30.39 35.91 30.31 34.82L30.31 34.82Q29.92 31.53 28.13 31.30L28.13 31.30Q26.80 31.14 26.56 27.32L26.56 27.32Q26.48 25.36 26.72 23.61Q26.95 21.85 27.34 20.60L27.34 20.60Q27.97 18.33 27.73 15.32Q27.50 12.32 27.73 9.97L27.73 9.97Q28.13 5.60 29.61 2.86L29.61 2.86Q30.31 1.69 31.68 0.52Q33.05-0.65 34.38-1.75 zM39.34 20.60Q39.53 21.69 40.12 22.36Q40.70 23.02 40.98 24.43Q41.25 25.83 41.17 27.51Q41.09 29.19 41.09 30.71Q41.09 32.24 41.25 33.45Q41.41 34.66 41.72 35.68L41.72 35.68Q42.58 38.10 44.14 38.10L44.14 38.10Q46.56 38.10 47.50 28.72L47.50 28.72Q47.81 26.14 47.81 22.12Q47.81 18.10 46.56 15.17Q45.31 12.24 43.52 12.24L43.52 12.24Q41.80 12.24 40.39 16.07L40.39 16.07Q39.14 19.50 39.34 20.60" style="fill: rgb(244, 109, 67);" transform="translate(-152.898,-26.081)"/></g><g class="path" style="opacity: 1; transform-origin: -73.41px -2.75px; transform: matrix3d(0, 0, 0, 0, 0, 0, 0, 0, 0, 0, 1, 0, 0, 0, 0, 1); animation: 1.35135s linear -0.624324s infinite normal forwards running animate-n6j5ik1eq6; transform-box: view-box;"><path d="M70.16 53.10L70.16 53.10Q69.38 53.33 68.40 52.98Q67.42 52.63 67.03 51.65Q66.64 50.68 66.52 49.39Q66.41 48.10 66.48 46.61Q66.56 45.13 66.56 43.72L66.56 43.72Q66.56 40.60 65.55 39.74L65.55 39.74Q63.44 38.18 63.83 31.77L63.83 31.77Q64.22 28.10 64.69 25.91L64.69 25.91Q65.47 22.32 65.43 19.82Q65.39 17.32 65.59 15.91Q65.78 14.50 66.05 13.57Q66.33 12.63 66.72 11.61Q67.11 10.60 67.42 8.25L67.42 8.25Q68.20 2.39 68.83 0.99L68.83 0.99Q69.69-0.97 70.90-3.04Q72.11-5.11 72.89-5.81L72.89-5.81Q74.69-7.14 78.05-6.04L78.05-6.04Q80.55-5.18 82.70-5.50Q84.84-5.81 85.98-5.77Q87.11-5.73 88.52-4.91Q89.92-4.09 90.70-2.96Q91.48-1.82 91.80-0.50L91.80-0.50Q92.34 1.77 91.88 5.25Q91.41 8.72 91.52 10.87Q91.64 13.02 92.46 14.93Q93.28 16.85 93.55 17.98Q93.83 19.11 94.02 20.25Q94.22 21.38 94.34 22.67Q94.45 23.96 94.80 25.60Q95.16 27.24 95.20 28.21Q95.23 29.19 95.16 29.82Q95.08 30.44 94.96 30.95Q94.84 31.46 95.04 32.51Q95.23 33.57 95.04 34.82Q94.84 36.07 94.61 37.24L94.61 37.24Q93.75 40.83 93.91 42.32L93.91 42.32Q94.22 44.97 93.91 46.11Q93.59 47.24 93.32 47.94Q93.05 48.64 92.70 49.89Q92.34 51.14 91.25 52.16Q90.16 53.18 89.18 52.79Q88.20 52.39 87.93 51.65Q87.66 50.91 87.46 50.13Q87.27 49.35 86.99 48.72Q86.72 48.10 86.02 48.02L86.02 48.02Q84.77 47.86 84.69 46.57Q84.61 45.28 84.73 44.31Q84.84 43.33 84.61 42.32Q84.38 41.30 83.83 40.36L83.83 40.36Q82.42 37.94 80.55 37.71L80.55 37.71Q77.73 37.32 76.64 40.44L76.64 40.44Q76.41 41.22 76.29 42.51Q76.17 43.80 75.66 44.82Q75.16 45.83 74.57 46.53Q73.98 47.24 73.48 47.82Q72.97 48.41 72.81 49.27L72.81 49.27Q72.19 52.63 70.16 53.10 zM77.11 20.36L77.11 20.36Q75.55 24.58 76.72 27.08L76.72 27.08Q77.50 28.49 78.75 28.57L78.75 28.57Q81.09 28.80 81.48 28.21Q81.88 27.63 82.46 26.96Q83.05 26.30 82.89 24.93Q82.73 23.57 82.66 22.51Q82.58 21.46 81.91 20.13Q81.25 18.80 81.02 17.28Q80.78 15.75 80.70 14.35L80.70 14.35Q80.39 11.22 79.30 11.22L79.30 11.22Q78.52 11.22 78.32 12.04Q78.13 12.86 78.05 14.19L78.05 14.19Q77.97 18.25 77.11 20.36" style="fill: rgb(253, 174, 97);" transform="translate(-152.898,-26.081)"/></g><g class="path" style="opacity: 1; transform-origin: -38.8px -2.32px; transform: matrix3d(0, 0, 0, 0, 0, 0, 0, 0, 0, 0, 1, 0, 0, 0, 0, 1); animation: 1.35135s linear -0.535135s infinite normal forwards running animate-n6j5ik1eq6; transform-box: view-box;"><path d="M111.80 51.85L111.80 51.85Q108.67 54.27 106.48 54.27L106.48 54.27Q105.47 54.27 104.34 53.64Q103.20 53.02 102.85 52.16Q102.50 51.30 102.50 50.25Q102.50 49.19 102.50 47.94L102.50 47.94Q102.58 45.83 101.88 44.11Q101.17 42.39 100.94 41.61L100.94 41.61Q100.55 39.97 100.70 36.85L100.70 36.85Q100.78 34.43 100.55 33.92Q100.31 33.41 100.31 32.94Q100.31 32.47 100.63 29.66L100.63 29.66Q101.48 22.94 99.84 22.78L99.84 22.78Q98.98 22.63 99.02 22.39Q99.06 22.16 98.59 21.34Q98.13 20.52 98.01 20.05Q97.89 19.58 97.89 18.57Q97.89 17.55 98.13 16.69Q98.36 15.83 98.67 14.97L98.67 14.97Q100.86 9.03 100.23 4.97L100.23 4.97Q99.38 0.52 99.65-1.32Q99.92-3.15 100.51-3.93Q101.09-4.72 101.88-5.38Q102.66-6.04 103.75-6.43L103.75-6.43Q106.09-7.22 107.85-6.04Q109.61-4.87 111.09-4.56Q112.58-4.25 113.91-4.17L113.91-4.17Q117.34-3.93 118.13-3.31Q118.91-2.68 119.65-2.33Q120.39-1.98 120.94-1.75L120.94-1.75Q122.50-0.97 122.81-0.26Q123.13 0.44 123.67 1.03Q124.22 1.61 124.84 2.32L124.84 2.32Q126.25 4.11 126.64 6.14L126.64 6.14Q126.88 7.47 127.03 8.49Q127.19 9.50 127.42 10.44L127.42 10.44Q128.13 13.49 129.06 15.83L129.06 15.83Q130.94 20.60 130 23.18L130 23.18L129.84 23.49Q130.47 25.05 130.04 26.81Q129.61 28.57 129.41 29.31Q129.22 30.05 128.91 30.99Q128.59 31.93 128.20 33.37Q127.81 34.82 127.42 35.87Q127.03 36.93 126.56 37.78L126.56 37.78Q125.63 39.50 121.72 43.57L121.72 43.57Q120.47 44.82 119.96 46.07Q119.45 47.32 118.52 48.02L118.52 48.02Q117.27 50.36 116.41 50.91L116.41 50.91Q114.69 52.24 111.80 51.85 zM110.70 17.39L110.70 17.39L110.94 21.85Q111.09 23.72 110.70 25.32Q110.31 26.93 110.59 28.72Q110.86 30.52 110.70 31.77Q110.55 33.02 110.86 33.80Q111.17 34.58 111.05 35.40Q110.94 36.22 110.86 37L110.86 37Q110.70 39.03 111.64 39.19L111.64 39.19Q112.27 39.27 112.81 38.61Q113.36 37.94 113.75 36.93L113.75 36.93Q114.45 35.28 114.92 32.63L114.92 32.63Q115.08 31.53 115.70 30.28L115.70 30.28Q116.80 27.94 116.80 26.89Q116.80 25.83 116.88 25.56Q116.95 25.28 117.07 24.97Q117.19 24.66 117.34 24.27Q117.50 23.88 117.66 22.82Q117.81 21.77 117.38 20.17Q116.95 18.57 115.74 17.55Q114.53 16.53 114.06 15.83Q113.59 15.13 113.20 14.58L113.20 14.58Q112.42 13.49 111.72 13.96L111.72 13.96Q110.70 14.74 110.70 17.39" style="fill: rgb(254, 224, 139);" transform="translate(-152.898,-26.081)"/></g><g class="path" style="opacity: 1; transform-origin: -9.09px -3px; transform: matrix3d(0, 0, 0, 0, 0, 0, 0, 0, 0, 0, 1, 0, 0, 0, 0, 1); animation: 1.35135s linear -0.445946s infinite normal forwards running animate-n6j5ik1eq6; transform-box: view-box;"><path d="M152.34 8.96L152.34 8.96Q149.69 9.66 151.33 18.02L151.33 18.02Q151.88 20.28 151.91 21.81Q151.95 23.33 151.48 25.13Q151.02 26.93 151.02 28.02Q151.02 29.11 150.70 30.60L150.70 30.60Q150.78 32.24 150.66 33.92Q150.55 35.60 150.47 37.16L150.47 37.16Q150.23 40.99 150.39 41.69Q150.55 42.39 150.90 42.59Q151.25 42.78 151.72 42.94L151.72 42.94Q152.81 43.33 153.05 43.96Q153.28 44.58 153.24 45.71Q153.20 46.85 152.97 48.10L152.97 48.10Q152.27 51.07 151.02 51.93L151.02 51.93Q150.31 52.39 149.57 52.24Q148.83 52.08 147.97 51.93L147.97 51.93Q145.31 51.46 143.44 52.39L143.44 52.39Q138.83 54.89 136.33 52.39L136.33 52.39Q135.31 51.38 135.08 49.27L135.08 49.27Q134.77 45.44 135.51 44.35Q136.25 43.25 136.76 42.98Q137.27 42.71 137.66 42.47L137.66 42.47Q138.52 42.08 138.52 41.14L138.52 41.14Q138.52 40.44 138.71 39.62Q138.91 38.80 139.06 37.86L139.06 37.86Q139.45 35.60 138.67 34.11L138.67 34.11Q137.81 32.39 137.93 31.30Q138.05 30.21 138.13 29.35L138.13 29.35L138.44 27.47Q138.59 25.21 138.36 23.61Q138.13 22 138.01 20.25Q137.89 18.49 137.93 16.93Q137.97 15.36 137.97 13.96L137.97 13.96Q137.97 10.68 137.30 10.05Q136.64 9.43 136.09 9.39Q135.55 9.35 135 9.35L135 9.35Q133.52 9.50 133.13 8.88L133.13 8.88Q132.27 8.02 132.27 6.69Q132.27 5.36 132.77 4.66Q133.28 3.96 133.44 3.06Q133.59 2.16 133.59 1.14L133.59 1.14Q133.75-1.20 133.44-1.94Q133.13-2.68 133.01-3.27Q132.89-3.86 132.89-4.40L132.89-4.40Q132.89-6.67 136.09-6.75L136.09-6.75Q138.05-6.82 140.08-6.71Q142.11-6.59 143.28-6.82L143.28-6.82Q147.34-7.61 149.80-7.45Q152.27-7.29 152.97-7.06L152.97-7.06Q154.92-6.28 155.08-2.76L155.08-2.76Q155.16-1.12 155.16 0.68Q155.16 2.47 155.31 4.35L155.31 4.35Q155.63 8.25 152.34 8.96" style="fill: rgb(230, 245, 152);" transform="translate(-152.898,-26.081)"/></g><g class="path" style="opacity: 1; transform-origin: 24.76px -2.95px; transform: matrix3d(0, 0, 0, 0, 0, 0, 0, 0, 0, 0, 1, 0, 0, 0, 0, 1); animation: 1.35135s linear -0.356757s infinite normal forwards running animate-n6j5ik1eq6; transform-box: view-box;"><path d="M166.80-4.87L166.80-4.87Q170.70-6.43 171.02-5.18L171.02-5.18Q172.97-5.65 173.91-4.01L173.91-4.01Q174.22-3.47 175.12-1.75Q176.02-0.03 177.07 1.93Q178.13 3.88 179.06 5.60Q180 7.32 180.31 7.90Q180.63 8.49 181.09 8.57Q181.56 8.64 182.03 8.33L182.03 8.33Q183.05 7.55 182.62 5.99Q182.19 4.43 182.23 3.53Q182.27 2.63 182.42 1.85L182.42 1.85Q182.89-0.34 182.58-1.67Q182.27-3 182.27-4.17L182.27-4.17Q182.27-6.51 186.09-6.51L186.09-6.51Q186.88-6.51 187.89-6.47Q188.91-6.43 190.94-6.63Q192.97-6.82 194.49-5.54Q196.02-4.25 195.47-0.97L195.47-0.97Q194.77 3.49 194.84 5.01Q194.92 6.53 194.92 7.86L194.92 7.86Q194.92 9.27 194.45 12L194.45 12Q193.59 16.85 193.98 18.88L193.98 18.88Q194.30 20.68 194.30 21.53L194.30 21.53L194.30 22.78Q194.30 23.02 194.45 23.80Q194.61 24.58 194.38 25.40Q194.14 26.22 194.30 27.16Q194.45 28.10 193.91 29.31Q193.36 30.52 193.40 31.96Q193.44 33.41 193.20 34.58Q192.97 35.75 193.44 37.32L193.44 37.32Q194.14 39.74 192.27 45.83L192.27 45.83Q191.95 47.32 191.29 47.75Q190.63 48.18 190.31 48.41Q190 48.64 189.84 49.43L189.84 49.43Q189.45 50.99 188.20 50.83L188.20 50.83Q186.56 50.60 185.55 47.55L185.55 47.55Q184.14 43.33 183.28 42.63Q182.42 41.93 181.99 40.68Q181.56 39.43 181.25 38.10L181.25 38.10Q180.63 34.82 180 34.31Q179.38 33.80 178.98 32.32Q178.59 30.83 178.20 30.21Q177.81 29.58 177.46 28.80Q177.11 28.02 176.72 27.24L176.72 27.24Q175.70 25.28 174.77 25.52L174.77 25.52Q174.22 25.68 174.02 26.89Q173.83 28.10 173.67 29.82L173.67 29.82Q173.20 34.82 172.11 37L172.11 37Q172.81 39.03 173.16 40.71Q173.52 42.39 173.01 44.70Q172.50 47 172.19 48.41Q171.88 49.82 171.52 50.87Q171.17 51.93 170.70 52.47Q170.23 53.02 169.53 52.90Q168.83 52.79 168.59 52.47Q168.36 52.16 168.13 51.85L168.13 51.85Q167.58 50.83 166.25 50.36Q164.92 49.89 164.38 49.19Q163.83 48.49 163.67 47.55Q163.52 46.61 163.48 45.52Q163.44 44.43 162.93 43.14Q162.42 41.85 162.42 40.99Q162.42 40.13 162.58 39.46Q162.73 38.80 162.89 38.14Q163.05 37.47 162.58 36.07L162.58 36.07Q161.64 33.18 163.13 31.30L163.13 31.30Q164.22 29.74 164.06 28.64L164.06 28.64Q163.59 26.38 162.27 25.68L162.27 25.68Q161.64 25.28 161.64 24.74L161.64 24.74Q161.64 23.57 161.29 22.98Q160.94 22.39 161.25 21.46Q161.56 20.52 161.17 19.89L161.17 19.89Q161.17 19.82 160.98 18.29Q160.78 16.77 160.59 14.39Q160.39 12 160.16 9.23Q159.92 6.46 159.84 3.88L159.84 3.88Q159.53-2.06 159.96-3.07Q160.39-4.09 161.29-4.56Q162.19-5.03 163.20-5.18L163.20-5.18Q165.39-5.42 166.80-4.87" style="fill: rgb(171, 221, 164);" transform="translate(-152.898,-26.081)"/></g><g class="path" style="opacity: 1; transform-origin: 62.7px -3.23px; transform: matrix3d(0, 0, 0, 0, 0, 0, 0, 0, 0, 0, 1, 0, 0, 0, 0, 1); animation: 1.35135s linear -0.267568s infinite normal forwards running animate-n6j5ik1eq6; transform-box: view-box;"><path d="M223.91 52.39Q223.67 51.93 223.83 51.03Q223.98 50.13 224.02 48.41Q224.06 46.69 223.20 46.69L223.20 46.69Q222.50 46.69 221.99 48.21Q221.48 49.74 220.63 50.17Q219.77 50.60 218.95 50.79Q218.13 50.99 217.30 51.18Q216.48 51.38 215.94 51.93L215.94 51.93Q215.39 52.47 214.22 53.06Q213.05 53.64 211.48 52.75Q209.92 51.85 209.38 51.14Q208.83 50.44 208.55 49.82Q208.28 49.19 207.97 48.72Q207.66 48.25 206.95 48.10L206.95 48.10Q205.39 47.71 204.84 45.56Q204.30 43.41 203.75 40.95Q203.20 38.49 203.01 36.61Q202.81 34.74 202.58 33.02L202.58 33.02Q202.03 28.88 201.09 28.06Q200.16 27.24 200 25.75L200 25.75Q199.61 22 199.61 20.40Q199.61 18.80 200.51 16.96Q201.41 15.13 201.41 13.29Q201.41 11.46 201.13 10.48Q200.86 9.50 200.70 8.92Q200.55 8.33 200.55 7.63L200.55 7.63Q200.47 6.38 201.17 3.88L201.17 3.88Q201.56 2.55 201.80 1.42Q202.03 0.28 202.27-0.57L202.27-0.57Q203.13-3.70 206.64-3.70L206.64-3.70L207.73-3.70Q209.84-3.70 211.48-5.03L211.48-5.03Q212.27-5.57 213.20-5.89Q214.14-6.20 214.77-5.85Q215.39-5.50 216.48-5.61Q217.58-5.73 218.79-6.47Q220-7.22 221.64-7.49Q223.28-7.76 225.08-7.33Q226.88-6.90 227.58-5.89Q228.28-4.87 228.71-4.60Q229.14-4.32 229.53-4.09L229.53-4.09Q231.02-3 231.33 0.60L231.33 0.60Q231.56 3.64 230.55 6.38L230.55 6.38Q230.39 6.93 230 8.10Q229.61 9.27 229.02 10.56Q228.44 11.85 228.44 12.98Q228.44 14.11 228.32 15.13Q228.20 16.14 227.66 17L227.66 17Q226.33 19.11 222.42 18.96L222.42 18.96Q219.06 18.96 218.28 17.86L218.28 17.86Q217.89 17.32 217.85 16.46Q217.81 15.60 217.70 14.11Q217.58 12.63 216.80 11.38Q216.02 10.13 214.69 10.75L214.69 10.75Q213.83 11.22 213.44 13.92Q213.05 16.61 213.52 19.35Q213.98 22.08 213.95 22.67Q213.91 23.25 213.75 23.80L213.75 23.80Q212.73 27.47 213.44 34.19L213.44 34.19Q213.98 39.11 215.86 39.50L215.86 39.50Q217.58 39.82 218.67 37.71L218.67 37.71Q219.61 35.75 218.52 29.66L218.52 29.66Q217.58 24.89 220.08 24.66L220.08 24.66Q221.17 24.50 222.85 24.58Q224.53 24.66 225.82 24.31Q227.11 23.96 228.55 24.31Q230 24.66 230.94 25.68Q231.88 26.69 230.94 29.58L230.94 29.58Q229.06 35.36 230.23 39.66L230.23 39.66Q230.39 40.36 230.70 41.61Q231.02 42.86 231.25 44.39Q231.48 45.91 231.56 47.47Q231.64 49.03 231.33 50.28L231.33 50.28Q230.78 53.18 228.40 53.18Q226.02 53.18 225.08 53.02Q224.14 52.86 223.91 52.39" style="fill: rgb(102, 194, 165);" transform="translate(-152.898,-26.081)"/></g><g class="path" style="opacity: 1; transform-origin: 86.05px 23.75px; transform: matrix3d(0, 0, 0, 0, 0, 0, 0, 0, 0, 0, 1, 0, 0, 0, 0, 1); animation: 1.35135s linear -0.178378s infinite normal forwards running animate-n6j5ik1eq6; transform-box: view-box;"><path d="M233.32 50.75Q233.05 50.21 233.16 49.58Q233.28 48.96 234.41 47.94Q235.55 46.93 237.30 45.99Q239.06 45.05 242.03 45.44L242.03 45.44Q243.44 45.60 244.30 47.08L244.30 47.08Q244.92 48.33 244.73 49.31Q244.53 50.28 243.98 50.95Q243.44 51.61 242.73 52.16L242.73 52.16Q241.33 53.18 240.23 53.33Q239.14 53.49 238.71 54Q238.28 54.50 237.30 54.27Q236.33 54.04 236.05 53.29Q235.78 52.55 235.16 52.32Q234.53 52.08 234.06 51.69Q233.59 51.30 233.32 50.75" style="fill: rgb(50, 136, 189);" transform="translate(-152.898,-26.081)"/></g><g class="path" style="opacity: 1; transform-origin: 105.75px -3px; transform: matrix3d(0, 0, 0, 0, 0, 0, 0, 0, 0, 0, 1, 0, 0, 0, 0, 1); animation: 1.35135s linear -0.0891892s infinite normal forwards running animate-n6j5ik1eq6; transform-box: view-box;"><path d="M267.19 8.96L267.19 8.96Q264.53 9.66 266.17 18.02L266.17 18.02Q266.72 20.28 266.76 21.81Q266.80 23.33 266.33 25.13Q265.86 26.93 265.86 28.02Q265.86 29.11 265.55 30.60L265.55 30.60Q265.63 32.24 265.51 33.92Q265.39 35.60 265.31 37.16L265.31 37.16Q265.08 40.99 265.23 41.69Q265.39 42.39 265.74 42.59Q266.09 42.78 266.56 42.94L266.56 42.94Q267.66 43.33 267.89 43.96Q268.13 44.58 268.09 45.71Q268.05 46.85 267.81 48.10L267.81 48.10Q267.11 51.07 265.86 51.93L265.86 51.93Q265.16 52.39 264.41 52.24Q263.67 52.08 262.81 51.93L262.81 51.93Q260.16 51.46 258.28 52.39L258.28 52.39Q253.67 54.89 251.17 52.39L251.17 52.39Q250.16 51.38 249.92 49.27L249.92 49.27Q249.61 45.44 250.35 44.35Q251.09 43.25 251.60 42.98Q252.11 42.71 252.50 42.47L252.50 42.47Q253.36 42.08 253.36 41.14L253.36 41.14Q253.36 40.44 253.55 39.62Q253.75 38.80 253.91 37.86L253.91 37.86Q254.30 35.60 253.52 34.11L253.52 34.11Q252.66 32.39 252.77 31.30Q252.89 30.21 252.97 29.35L252.97 29.35L253.28 27.47Q253.44 25.21 253.20 23.61Q252.97 22 252.85 20.25Q252.73 18.49 252.77 16.93Q252.81 15.36 252.81 13.96L252.81 13.96Q252.81 10.68 252.15 10.05Q251.48 9.43 250.94 9.39Q250.39 9.35 249.84 9.35L249.84 9.35Q248.36 9.50 247.97 8.88L247.97 8.88Q247.11 8.02 247.11 6.69Q247.11 5.36 247.62 4.66Q248.13 3.96 248.28 3.06Q248.44 2.16 248.44 1.14L248.44 1.14Q248.59-1.20 248.28-1.94Q247.97-2.68 247.85-3.27Q247.73-3.86 247.73-4.40L247.73-4.40Q247.73-6.67 250.94-6.75L250.94-6.75Q252.89-6.82 254.92-6.71Q256.95-6.59 258.13-6.82L258.13-6.82Q262.19-7.61 264.65-7.45Q267.11-7.29 267.81-7.06L267.81-7.06Q269.77-6.28 269.92-2.76L269.92-2.76Q270-1.12 270 0.68Q270 2.47 270.16 4.35L270.16 4.35Q270.47 8.25 267.19 8.96" style="fill: rgb(213, 62, 79);" transform="translate(-152.898,-26.081)"/></g><g class="path" style="opacity: 1; transform-origin: 137.87px -1.56px; transform: matrix3d(0, 0, 0, 0, 0, 0, 0, 0, 0, 0, 1, 0, 0, 0, 0, 1); animation: 1.35135s linear 0s infinite normal forwards running animate-n6j5ik1eq6; transform-box: view-box;"><path d="M281.56-1.75L281.56-1.75Q282.42-2.53 283.05-3.43Q283.67-4.32 284.69-5.11L284.69-5.11Q287.42-7.37 290.16-6.43L290.16-6.43Q293.52-5.18 296.33-4.87Q299.14-4.56 300.43-3.47Q301.72-2.37 302.66-1.12L302.66-1.12Q304.92 1.85 305.39 5.36L305.39 5.36Q305.47 6.69 305.86 7.24L305.86 7.24Q306.88 8.96 306.52 11.85Q306.17 14.74 306.29 15.87Q306.41 17 306.68 17.55Q306.95 18.10 307.19 18.64L307.19 18.64Q307.81 20.13 307.81 21.61L307.81 21.61Q307.81 23.49 306.56 25.36L306.56 25.36Q306.02 26.07 306.17 28.10Q306.33 30.13 306.41 32.16L306.41 32.16Q306.48 37.24 305.86 38.45Q305.23 39.66 304.96 39.89Q304.69 40.13 304.45 40.28L304.45 40.28Q303.28 40.83 302.38 43.53Q301.48 46.22 300 47.90Q298.52 49.58 296.91 50.64Q295.31 51.69 294.41 52.28Q293.52 52.86 293.13 53.41Q292.73 53.96 292.34 54.50L292.34 54.50Q291.33 55.75 289.77 55.75L289.77 55.75Q287.11 55.75 285.86 54.50L285.86 54.50Q285.31 53.80 284.69 52.47L284.69 52.47Q283.52 50.36 281.56 49.03L281.56 49.03Q279.38 47.55 278.91 44.58L278.91 44.58Q278.67 43.57 278.79 42.55Q278.91 41.53 278.67 39.97L278.67 39.97Q278.52 38.41 278.05 37.16Q277.58 35.91 277.50 34.82L277.50 34.82Q277.11 31.53 275.31 31.30L275.31 31.30Q273.98 31.14 273.75 27.32L273.75 27.32Q273.67 25.36 273.91 23.61Q274.14 21.85 274.53 20.60L274.53 20.60Q275.16 18.33 274.92 15.32Q274.69 12.32 274.92 9.97L274.92 9.97Q275.31 5.60 276.80 2.86L276.80 2.86Q277.50 1.69 278.87 0.52Q280.23-0.65 281.56-1.75 zM286.52 20.60Q286.72 21.69 287.30 22.36Q287.89 23.02 288.16 24.43Q288.44 25.83 288.36 27.51Q288.28 29.19 288.28 30.71Q288.28 32.24 288.44 33.45Q288.59 34.66 288.91 35.68L288.91 35.68Q289.77 38.10 291.33 38.10L291.33 38.10Q293.75 38.10 294.69 28.72L294.69 28.72Q295 26.14 295 22.12Q295 18.10 293.75 15.17Q292.50 12.24 290.70 12.24L290.70 12.24Q288.98 12.24 287.58 16.07L287.58 16.07Q286.33 19.50 286.52 20.60" style="fill: rgb(244, 109, 67);" transform="translate(-152.898,-26.081)"/></g></g><text font-size="80" font-family="Creepster Caps" fill="#fdae61" dy="0.35em">loading.io</text>
  </g>

</g><style type="text/css">@keyframes animate-n6j5ik1eq6 { 0.00% {transform: translate(0.00px,0.00px) rotate(0.00deg) scale(0.00, 0.00) skew(0deg, 0.00deg) ;opacity: 1.00;}2.00% {transform: translate(0.00px,0.00px) rotate(0.00deg) scale(0.01, 0.01) skew(-19.24deg, 0.00deg) ;opacity: 1.00;}4.00% {animation-timing-function: cubic-bezier(0.72,0.53,0.37,0.20);transform: translate(0.00px,0.00px) rotate(0.00deg) scale(0.03, 0.03) skew(-19.24deg, 0.00deg) ;opacity: 1.00;}10.00% {transform: translate(0.00px,0.00px) rotate(0.00deg) scale(0.16, 0.16) skew(-19.26deg, 0.00deg) ;opacity: 1.00;}14.00% {transform: translate(0.00px,0.00px) rotate(0.00deg) scale(0.33, 0.33) skew(-19.32deg, 0.00deg) ;opacity: 1.00;}18.00% {transform: translate(0.00px,0.00px) rotate(0.00deg) scale(0.60, 0.60) skew(-19.51deg, 0.00deg) ;opacity: 1.00;}20.00% {animation-timing-function: cubic-bezier(0.33,0.00,0.67,0.00);transform: translate(0.00px,0.00px) rotate(0.00deg) scale(1.00, 1.00) skew(-20deg, 0.00deg) ;opacity: 1.00;}50.00% {animation-timing-function: cubic-bezier(0.53,0.02,0.86,0.54);transform: translate(0.00px,0.00px) rotate(0.00deg) skew(-20deg, 0.00deg) ;opacity: 1.00;}100.00% {animation-timing-function: cubic-bezier(0.53,0.02,0.86,0.54);transform: translate(0.00px,10.00px) rotate(0.00deg) skew(-20deg, 0.00deg) ;opacity: 0.00;} }</style><!-- [ldio] generated by https://loading.io --></svg>